<?xml version="1.0" standalone="no"?>
<!DOCTYPE svg PUBLIC "-//W3C//DTD SVG 20010904//EN"
 "http://www.w3.org/TR/2001/REC-SVG-20010904/DTD/svg10.dtd">
<svg version="1.0" xmlns="http://www.w3.org/2000/svg"
 width="709.000000pt" height="383.000000pt" viewBox="0 0 709.000000 383.000000"
 preserveAspectRatio="xMidYMid meet">

<g transform="translate(0.000000,383.000000) scale(0.100000,-0.100000)"
fill="#000000" stroke="none">
<path d="M4620 3820 c-387 -66 -620 -334 -660 -759 -19 -203 15 -395 101 -569
43 -88 64 -117 137 -191 137 -136 277 -198 472 -208 128 -6 222 12 328 62 80
38 177 122 222 193 l28 42 11 -97 c7 -54 15 -115 18 -135 l6 -38 103 0 104 0
0 460 0 460 -390 0 -390 0 0 -120 0 -120 250 0 c285 0 260 10 235 -99 -40
-168 -173 -307 -335 -351 -62 -17 -188 -15 -252 4 -116 34 -218 125 -278 251
-53 111 -72 204 -71 350 1 183 31 305 100 412 92 142 225 213 396 213 185 -1
325 -85 397 -240 l33 -70 143 0 144 0 -7 38 c-9 51 -57 163 -95 222 -79 123
-235 230 -395 270 -92 24 -273 34 -355 20z"/>
<path d="M2485 3807 c-11 -5 -171 -115 -355 -242 -717 -496 -1839 -1271 -1917
-1324 -45 -31 -85 -64 -88 -74 -8 -23 14 -50 36 -44 9 2 191 126 405 274 214
148 746 516 1182 817 575 398 792 553 792 566 0 26 -30 41 -55 27z"/>
<path d="M360 3784 c-25 -7 -57 -14 -72 -14 -14 0 -40 -11 -56 -25 -17 -14
-45 -32 -64 -39 -58 -25 -85 -62 -114 -154 -17 -56 -24 -96 -19 -118 4 -23 0
-42 -15 -66 -29 -48 -26 -97 10 -144 16 -21 30 -47 30 -58 0 -10 22 -41 50
-68 27 -27 50 -56 50 -63 0 -8 22 -41 49 -72 102 -119 98 -116 139 -109 20 3
57 8 80 12 68 10 76 39 68 239 -3 88 -1 251 4 362 12 220 7 264 -32 300 -33
30 -57 33 -108 17z"/>
<path d="M612 3783 c-59 -28 -66 -63 -58 -278 4 -104 7 -280 6 -390 0 -227 3
-239 67 -249 21 -3 55 -8 76 -12 37 -6 40 -4 103 62 35 38 73 88 83 111 11 22
34 51 51 63 17 12 42 45 56 74 14 28 34 67 45 86 24 42 20 92 -11 125 -17 18
-19 26 -10 52 9 24 7 42 -9 89 -10 32 -22 71 -25 86 -8 37 -49 83 -88 99 -18
7 -49 25 -68 40 -19 15 -53 29 -75 32 -22 4 -56 10 -77 15 -27 7 -44 6 -66 -5z"/>
<path d="M5797 3794 c-4 -4 -7 -383 -7 -841 l0 -834 438 3 437 4 77 26 c95 32
161 73 223 139 85 91 120 200 113 353 -3 75 -9 102 -34 156 -38 80 -105 148
-189 192 l-63 32 48 33 c122 82 184 232 159 386 -26 162 -144 279 -334 333
-51 15 -122 18 -460 22 -220 2 -403 0 -408 -4z m798 -263 c151 -69 154 -281 5
-365 l-55 -31 -227 -3 -228 -3 0 210 0 211 233 0 c204 0 237 -3 272 -19z m7
-660 c20 -6 58 -26 84 -44 161 -108 123 -381 -62 -440 -59 -19 -63 -19 -326
-18 l-208 1 0 261 0 261 238 -5 c144 -2 251 -8 274 -16z"/>
<path d="M2303 3029 c-41 -8 -101 -35 -137 -62 -18 -13 -24 -12 -58 13 -21 16
-61 34 -89 40 -200 48 -388 -107 -377 -310 6 -114 30 -147 283 -400 l225 -225
229 230 c139 139 238 248 252 275 20 38 24 59 24 140 0 85 -3 100 -27 141 -71
121 -198 183 -325 158z"/>
<path d="M3326 1725 c-199 -51 -338 -189 -395 -394 -11 -41 -18 -77 -16 -80 3
-2 65 -19 138 -37 72 -18 133 -33 133 -34 1 0 5 17 9 37 21 113 88 213 168
252 54 26 178 29 235 6 83 -35 132 -118 132 -225 0 -140 -69 -221 -349 -409
-203 -137 -340 -258 -395 -350 -54 -89 -66 -145 -66 -308 l0 -143 248 0 c136
0 385 -3 555 -7 l307 -6 0 126 0 127 -405 0 c-448 0 -420 -5 -391 65 32 76
127 158 396 341 194 133 289 220 337 310 125 235 59 529 -149 660 -84 53 -171
76 -308 80 -88 3 -142 -1 -184 -11z"/>
<path d="M4781 1724 c-36 -7 -98 -29 -138 -48 -301 -143 -341 -539 -72 -720
l48 -32 -64 -42 c-252 -166 -288 -505 -74 -714 67 -65 167 -118 274 -144 94
-23 287 -23 375 -1 145 38 288 135 347 234 78 134 84 314 13 454 -29 56 -106
136 -171 175 l-59 37 48 33 c154 103 214 259 171 444 -35 153 -185 281 -376
324 -87 19 -234 20 -322 0z m282 -252 c23 -10 59 -37 79 -60 101 -112 63 -283
-76 -348 -76 -36 -185 -34 -257 4 -76 40 -112 94 -117 176 -7 102 22 163 99
212 22 13 56 29 77 34 51 13 145 4 195 -18z m19 -700 c131 -58 193 -191 153
-328 -23 -80 -96 -155 -174 -178 -216 -64 -421 57 -421 246 0 83 17 131 63
184 42 47 92 78 154 94 56 14 175 5 225 -18z"/>
<path d="M0 870 l0 -840 145 0 145 0 0 335 0 335 198 1 c279 1 347 11 460 68
124 63 206 166 242 305 75 293 -90 558 -386 621 -53 11 -152 15 -436 15 l-368
0 0 -840z m710 589 c120 -26 200 -123 200 -243 0 -86 -15 -132 -61 -181 -70
-76 -104 -84 -345 -85 l-209 -2 -3 261 -2 261 184 0 c102 0 208 -5 236 -11z"/>
<path d="M1422 873 l3 -838 608 -3 607 -2 0 125 0 125 -460 0 -460 0 0 250 0
250 415 0 415 0 0 120 0 120 -415 0 -415 0 0 225 0 225 440 0 440 0 0 120 0
120 -590 0 -590 0 2 -837z"/>
<path d="M5840 870 l0 -840 145 0 145 0 0 360 0 360 373 2 372 3 0 120 0 120
-372 3 -373 2 0 235 0 235 430 0 430 0 0 120 0 120 -575 0 -575 0 0 -840z"/>
</g>
</svg>
